<svg xmlns="http://www.w3.org/2000/svg" width="820" height="620"><rect width="820" height="620" x="0" y="0" fill="#FFFFFF" id="backgorund"/><g id="viz"><clipPath id="serieClipPath"><rect x="-50" y="-10" width="820" height="620"/></clipPath><g transform="translate(0,0)"><g transform="translate(50,10)" clip-path="url(#serieClipPath)"><g id="axis"><g transform="translate(0,590)" fill="none" font-size="10" font-family="sans-serif" text-anchor="middle"><path class="domain" stroke="currentColor" d="M0,6V0H755V6"/><g class="tick" opacity="1" transform="translate(0,0)"><line stroke="currentColor" y2="6"/><text fill="currentColor" y="9" dy="0.71em">March</text></g><g class="tick" opacity="1" transform="translate(53.92857142857142,0)"><line stroke="currentColor" y2="6"/><text fill="currentColor" y="9" dy="0.71em">Thu 03</text></g><g class="tick" opacity="1" transform="translate(107.85714285714285,0)"><line stroke="currentColor" y2="6"/><text fill="currentColor" y="9" dy="0.71em">Sat 05</text></g><g class="tick" opacity="1" transform="translate(161.78571428571428,0)"><line stroke="currentColor" y2="6"/><text fill="currentColor" y="9" dy="0.71em">Mon 07</text></g><g class="tick" opacity="1" transform="translate(215.7142857142857,0)"><line stroke="currentColor" y2="6"/><text fill="currentColor" y="9" dy="0.71em">Wed 09</text></g><g class="tick" opacity="1" transform="translate(269.64285714285717,0)"><line stroke="currentColor" y2="6"/><text fill="currentColor" y="9" dy="0.71em">Fri 11</text></g><g class="tick" opacity="1" transform="translate(323.57142857142856,0)"><line stroke="currentColor" y2="6"/><text fill="currentColor" y="9" dy="0.71em">Mar 13</text></g><g class="tick" opacity="1" transform="translate(377.5,0)"><line stroke="currentColor" y2="6"/><text fill="currentColor" y="9" dy="0.71em">Tue 15</text></g><g class="tick" opacity="1" transform="translate(431.4285714285714,0)"><line stroke="currentColor" y2="6"/><text fill="currentColor" y="9" dy="0.71em">Thu 17</text></g><g class="tick" opacity="1" transform="translate(485.3571428571429,0)"><line stroke="currentColor" y2="6"/><text fill="currentColor" y="9" dy="0.71em">Sat 19</text></g><g class="tick" opacity="1" transform="translate(539.2857142857143,0)"><line stroke="currentColor" y2="6"/><text fill="currentColor" y="9" dy="0.71em">Mon 21</text></g><g class="tick" opacity="1" transform="translate(593.2142857142857,0)"><line stroke="currentColor" y2="6"/><text fill="currentColor" y="9" dy="0.71em">Wed 23</text></g><g class="tick" opacity="1" transform="translate(647.1428571428571,0)"><line stroke="currentColor" y2="6"/><text fill="currentColor" y="9" dy="0.71em">Fri 25</text></g><g class="tick" opacity="1" transform="translate(701.0714285714286,0)"><line stroke="currentColor" y2="6"/><text fill="currentColor" y="9" dy="0.71em">Mar 27</text></g><g class="tick" opacity="1" transform="translate(755,0)"><line stroke="currentColor" y2="6"/><text fill="currentColor" y="9" dy="0.71em">Tue 29</text></g><text x="755" dy="-5" text-anchor="end" style="font-family: Arial, sans-serif; font-size: 12px; fill: rgb(123, 123, 123); font-weight: bold;">日期</text></g><g transform="translate(0,0)" fill="none" font-size="10" font-family="sans-serif" text-anchor="end"><path class="domain" stroke="currentColor" d="M0,590V0"/><g class="tick" opacity="1" transform="translate(0,590)"><line stroke="currentColor" x2="-6"/><text fill="currentColor" x="-9" dy="0.32em">505</text></g><g class="tick" opacity="1" transform="translate(0,505.7142857142858)"><line stroke="currentColor" x2="-6"/><text fill="currentColor" x="-9" dy="0.32em">510</text></g><g class="tick" opacity="1" transform="translate(0,421.42857142857144)"><line stroke="currentColor" x2="-6"/><text fill="currentColor" x="-9" dy="0.32em">515</text></g><g class="tick" opacity="1" transform="translate(0,337.1428571428571)"><line stroke="currentColor" x2="-6"/><text fill="currentColor" x="-9" dy="0.32em">520</text></g><g class="tick" opacity="1" transform="translate(0,252.8571428571429)"><line stroke="currentColor" x2="-6"/><text fill="currentColor" x="-9" dy="0.32em">525</text></g><g class="tick" opacity="1" transform="translate(0,168.57142857142856)"><line stroke="currentColor" x2="-6"/><text fill="currentColor" x="-9" dy="0.32em">530</text></g><g class="tick" opacity="1" transform="translate(0,84.28571428571432)"><line stroke="currentColor" x2="-6"/><text fill="currentColor" x="-9" dy="0.32em">535</text></g><g class="tick" opacity="1" transform="translate(0,0)"><line stroke="currentColor" x2="-6"/><text fill="currentColor" x="-9" dy="0.32em">540</text></g><text x="4" text-anchor="start" dominant-baseline="hanging" style="font-family: Arial, sans-serif; font-size: 12px; fill: rgb(123, 123, 123); font-weight: bold;">收盤價</text></g></g><g id="viz"><g><path d="M26.96428571428571,354C40.44642857142857,354,40.44642857142857,404.57142857142856,53.92857142857142,404.57142857142856C94.375,404.57142857142856,94.375,320.28571428571433,134.82142857142858,320.28571428571433C148.30357142857144,320.28571428571433,148.30357142857144,269.7142857142857,161.78571428571428,269.7142857142857C175.26785714285714,269.7142857142857,175.26785714285714,320.28571428571433,188.75,320.28571428571433C202.23214285714283,320.28571428571433,202.23214285714283,303.4285714285714,215.7142857142857,303.4285714285714C229.19642857142856,303.4285714285714,229.19642857142856,455.14285714285717,242.67857142857144,455.14285714285717C283.125,455.14285714285717,283.125,404.57142857142856,323.57142857142856,404.57142857142856C337.05357142857144,404.57142857142856,337.05357142857144,505.7142857142858,350.5357142857143,505.7142857142858C364.0178571428571,505.7142857142858,364.0178571428571,488.85714285714283,377.5,488.85714285714283C390.9821428571429,488.85714285714283,390.9821428571429,590,404.4642857142857,590C417.94642857142856,590,417.94642857142856,370.85714285714283,431.4285714285714,370.85714285714283C471.875,370.85714285714283,471.875,472,512.3214285714286,472C525.8035714285714,472,525.8035714285714,387.7142857142857,539.2857142857143,387.7142857142857C552.7678571428571,387.7142857142857,552.7678571428571,117.99999999999997,566.25,117.99999999999997C579.7321428571429,117.99999999999997,579.7321428571429,33.71428571428572,593.2142857142857,33.71428571428572C606.6964285714286,33.71428571428572,606.6964285714286,16.85714285714286,620.1785714285714,16.85714285714286C660.625,16.85714285714286,660.625,151.7142857142857,701.0714285714286,151.7142857142857C714.5535714285714,151.7142857142857,714.5535714285714,252.8571428571429,728.0357142857143,252.8571428571429C741.5178571428571,252.8571428571429,741.5178571428571,168.57142857142856,755,168.57142857142856" stroke="#1f77b4" fill="none"/><text font-family="sans-serif" font-size="10" class="labels" x="620.1785714285714" y="16.85714285714286" dx="0" dy="-4" text-anchor="middle"/></g></g></g><text y="4" x="4" style="font-family: Arial, sans-serif; font-size: 12px; fill: black; font-weight: bold; dominant-baseline: hanging;"/></g><g id="grid"><rect x="0" y="0" width="820" height="620" fill="none" stroke="#ccc"/></g></g></svg>